<svg version="1.1" id="Layer_1" xmlns="http://www.w3.org/2000/svg" xmlns:xlink="http://www.w3.org/1999/xlink" x="0px" y="0px" viewBox="0 0 86.9 83" style="enable-background:new 0 0 86.9 83;" xml:space="preserve"> <style type="text/css"> .st0{fill:#FFFFFF;} </style> <g> <path class="st0" d="M50.4,0c12.2,0,24.3,0,36.5,0c0,27.7,0,55.4,0,83C57.9,83,29,83,0,83C0,55.4,0,27.7,0,0c12,0,24,0,36,0 c-1.9,0.6-3.8,1.2-5.7,1.9C16,6.9,6.8,16.8,3.3,31.4c-1.9,8-1.6,16.2,1.3,24c2.9,7.7,7.8,14,14.3,18.9c5.6,4.3,12.1,6.5,19.1,7.6 c7.9,1.3,15.3-0.2,22.4-3.2c7-2.9,12.3-8,16.9-14.1c7.3-9.7,7.9-20.8,6.5-32c-1-7.7-5-14.6-10.6-20.2c-5.9-6-12.9-10-21.3-11.5 C51.3,0.7,50.9,0.3,50.4,0z"/> <path d="M50.4,0c0.5,0.3,0.9,0.7,1.4,0.8c8.4,1.5,15.4,5.5,21.3,11.5c5.6,5.7,9.6,12.5,10.6,20.2c1.4,11.2,0.8,22.3-6.5,32 c-4.6,6.1-9.9,11.1-16.9,14.1c-7.1,3-14.5,4.5-22.4,3.2c-7-1.1-13.5-3.3-19.1-7.6C12.3,69.4,7.4,63.2,4.6,55.5 c-2.9-7.8-3.2-16-1.3-24C6.8,16.8,16,6.9,30.3,1.9C32.2,1.2,34.1,0.6,36,0C40.8,0,45.6,0,50.4,0z M43.3,77.3 c20.3,0.5,36.9-16.2,36.6-36.4C79.6,20.7,64.5,4.6,43.4,4.5c-21.1,0-36.1,16-36.6,36.2C6.4,60.5,23.2,78,43.3,77.3z"/> <path class="st0" d="M43.3,77.3C23.2,78,6.4,60.5,6.8,40.7C7.2,20.6,22.3,4.5,43.4,4.5c21.1,0,36.3,16.1,36.5,36.4 C80.2,61.1,63.6,77.8,43.3,77.3z M43.6,54.7c-2.1,0-4.2,0-6.2,0c-2.2,0-4.5-0.1-6.7,0.2c-0.9,0.1-2,1-2.5,1.8 c-0.3,0.5,0.3,1.9,0.9,2.4c0.7,0.6,1.9,0.8,2.9,0.9c3.5,0.1,7,0,10.6,0c4.2,0,8.5,0,12.7-0.1c1.7,0,3.3-0.7,3.3-2.7 c0-2.1-1.5-2.5-3.3-2.5C51.3,54.8,47.4,54.7,43.6,54.7z M61.8,29.8c0.1-2.3-1.3-3.7-3.6-3.8c-2.4-0.1-4.2,1.5-4.3,3.8 c-0.1,2,1.6,3.8,3.7,3.9C59.7,33.7,61.7,32,61.8,29.8z M25,29.5c0,2.4,1.4,4,3.7,4.1c2.2,0.1,4-1.6,4-3.9c0-2.3-1.6-3.8-3.9-3.8 C26.1,26,25,27.1,25,29.5z"/> <path d="M43.6,54.7c3.8,0,7.7,0,11.5,0c1.8,0,3.3,0.4,3.3,2.5c0,2.1-1.6,2.7-3.3,2.7C51,60,46.7,60,42.5,60c-3.5,0-7,0.1-10.6,0 c-1,0-2.1-0.3-2.9-0.9c-0.6-0.5-1.2-1.9-0.9-2.4c0.5-0.8,1.6-1.7,2.5-1.8c2.2-0.3,4.5-0.2,6.7-0.2C39.4,54.7,41.5,54.7,43.6,54.7z" /> <path d="M61.8,29.8c-0.1,2.2-2,3.9-4.3,3.8c-2.1-0.1-3.8-1.8-3.7-3.9c0.1-2.3,2-3.9,4.3-3.8C60.5,26.1,61.9,27.5,61.8,29.8z"/> <path d="M25,29.5c0-2.4,1.2-3.6,3.7-3.6c2.4,0,3.9,1.5,3.9,3.8c0,2.2-1.7,3.9-4,3.9C26.4,33.5,25,32,25,29.5z"/> </g> </svg>
