<?xml version="1.0" encoding="utf-8"?> <!-- Generator: Adobe Illustrator 19.0.0, SVG Export Plug-In . SVG Version: 6.00 Build 0)  --> <svg version="1.1" id="Layer_1" xmlns="http://www.w3.org/2000/svg" xmlns:xlink="http://www.w3.org/1999/xlink" x="0px" y="0px" viewBox="0 0 86.9 83" style="enable-background:new 0 0 86.9 83;" xml:space="preserve"> <style type="text/css"> .st0{fill:#FFFFFF;} </style> <g> <path d="M34.1,1.7c6.6,0,13.1,0,19.7,0c1.2,0.5,2.3,1,3.5,1.4C66,6,72.7,11.6,78,19.1c7.3,10.5,8.7,22.1,5.7,34.1 c-3,12-10.6,20.7-21.7,26.3c-3.8,1.9-7.8,3.2-12.2,2.9c-3.6-0.2-7.2-0.2-10.8,0c-4.3,0.2-8.2-0.5-12.1-2.4 C14,73.7,5.8,63.7,3.3,49.3c-0.4-2.3-0.6-4.6-0.9-6.8c0-0.3,0-0.6,0-1c0.1-0.5,0.4-0.9,0.4-1.4c0.2-8,2.8-15.1,7.4-21.6 c4.9-6.8,11-12.1,19-15C30.9,3,32.5,2.3,34.1,1.7z M43.9,6C22.7,5.5,7.3,23.5,7.4,41.7c0.1,21,15.5,37.1,36.6,37 c21.4,0,36.1-16.1,36.5-36.3C80.9,23.4,64.9,5.4,43.9,6z"/> <path class="st0" d="M2.4,42.5c0.3,2.3,0.5,4.6,0.9,6.8C5.8,63.7,14,73.7,27,80c3.8,1.9,7.8,2.6,12.1,2.4c3.6-0.2,7.2-0.2,10.8,0 c4.4,0.3,8.4-1,12.2-2.9c11.1-5.5,18.7-14.3,21.7-26.3c3-12,1.6-23.6-5.7-34.1C72.7,11.6,66,6,57.2,3.1c-1.2-0.4-2.3-0.9-3.5-1.4 c10.7,0,21.4,0,32.2,0c0,27,0,54.1,0,81.1c-27.8,0-55.7,0-83.5,0C2.4,69.4,2.4,55.9,2.4,42.5z"/> <path class="st0" d="M34.1,1.7c-1.6,0.6-3.2,1.3-4.8,1.9c-8,2.9-14.1,8.1-19,15C5.6,25,3,32.2,2.8,40.2c0,0.5-0.3,0.9-0.4,1.4 c0-13.2,0-26.5,0-39.8C13,1.7,23.5,1.7,34.1,1.7z"/> <path class="st0" d="M43.9,6c21-0.6,37,17.4,36.6,36.4C80,62.6,65.3,78.7,43.9,78.7c-21.1,0-36.5-16-36.6-37 C7.3,23.5,22.7,5.5,43.9,6z M44,60.4c3.1,0.5,6.2,1.1,9.3,1.5c0.9,0.1,2.4,0,2.7-0.5c0.5-0.9,0.6-2.5,0.1-3.3 c-0.8-1.2-2.1-2.2-3.3-3c-3.7-2.3-7.9-2.5-12-2c-3.3,0.4-6.4,1.6-8.5,4.4c-0.7,0.9-0.8,2.5-0.5,3.7c0.1,0.5,2,0.8,3,0.7 C37.8,61.5,40.8,60.9,44,60.4z M29.3,34.8c2.2,0,4.3-2,4.2-4c-0.1-2.2-1.8-3.7-4.1-3.7c-2.5,0-3.9,1.3-3.9,3.8 C25.5,33.3,26.9,34.8,29.3,34.8z M62.4,30.9c0-2.5-1.3-3.8-3.9-3.8c-2.4,0-4.2,1.6-4.1,3.9c0,1.9,2.1,3.8,4.2,3.8 C60.9,34.8,62.4,33.2,62.4,30.9z"/> <path d="M44,60.4c-3.2,0.5-6.2,1.1-9.3,1.4c-1,0.1-2.9-0.2-3-0.7c-0.3-1.1-0.2-2.8,0.5-3.7c2.1-2.7,5.3-3.9,8.5-4.4 c4.1-0.5,8.3-0.4,12,2c1.3,0.8,2.6,1.8,3.3,3c0.5,0.8,0.4,2.4-0.1,3.3c-0.3,0.5-1.8,0.7-2.7,0.5C50.2,61.5,47.1,60.9,44,60.4z"/> <path d="M29.3,34.8c-2.3,0-3.8-1.5-3.8-3.9c0-2.5,1.3-3.8,3.9-3.8c2.4,0,4,1.5,4.1,3.7C33.6,32.8,31.5,34.8,29.3,34.8z"/> <path d="M62.4,30.9c0,2.4-1.5,3.9-3.8,3.9c-2,0-4.1-1.9-4.2-3.8c0-2.3,1.7-3.9,4.1-3.9C61.1,27.1,62.4,28.4,62.4,30.9z"/> </g> </svg>
