<svg viewBox="0 0 93.6 93.1" xmlns="http://www.w3.org/2000/svg"><style type="text/css">.st0{fill:#FFFFFF;}</style><g><path class="st0" d="M0,0c31.2,0,62.4,0,93.6,0c0,31,0,62.1,0,93.1c-31.2,0-62.4,0-93.6,0C0,62.1,0,31,0,0z M46.1,1.9 		C21.9,0.7,0.8,22.6,0.6,46.4C0.4,71.1,21.9,92,45.9,92c25,0,44.7-21.3,45.6-43.4C92.5,21.8,68.8,0.5,46.1,1.9z"/> 	<path d="M46.1,1.9c22.7-1.4,46.4,19.9,45.4,46.7C90.6,70.7,70.9,92.1,45.9,92c-24,0-45.5-20.9-45.3-45.6 		C0.8,22.6,21.9,0.7,46.1,1.9z M5.2,46.7C4.5,69,23.7,87.4,45.5,87.6C68.4,87.9,87,69.1,87.1,47.1C87.3,24.6,68.4,6.1,46.4,6 		C23.7,5.8,4.5,24.8,5.2,46.7z"/> 	<path class="st0" d="M5.2,46.7C4.5,24.8,23.7,5.8,46.4,6c22,0.2,40.9,18.6,40.7,41.1c-0.1,22-18.8,40.8-41.6,40.5 		C23.7,87.4,4.5,69,5.2,46.7z M46.2,55.5C46.2,55.5,46.2,55.5,46.2,55.5c-8,0-16,0-24,0.1c-2.7,0-3.3,1.3-2.5,3.8 		c5.4,16.3,21.7,21.3,35.9,16.9c8.4-2.5,13.7-8.4,16.7-16.6c1.1-3,0.5-4.1-2.6-4.1C61.8,55.4,54,55.5,46.2,55.5z M28,27 		c-0.6,0.4-1.3,0.7-1.8,1.2c-2.3,2.4-4.6,4.8-7,7.2c-0.9,1-1.5,2.2-0.2,3c0.8,0.4,2.3,0.3,3.1-0.2c1.5-1,2.7-2.5,3.9-3.8 		c1.2-1.3,2.2-1.5,3.6-0.1c1.3,1.5,2.7,2.9,4.3,4.1c0.7,0.5,2,0.2,3,0.2c0-1,0.4-2.3-0.1-2.9c-2.3-2.6-4.8-5.1-7.3-7.6 		C29.3,27.7,28.7,27.4,28,27z M73.9,37.3c-0.4-0.7-0.6-1.4-1-1.8c-2.3-2.5-4.7-5-7.1-7.4c-1.3-1.3-2.6-0.9-3.7,0.3 		c-2.3,2.3-4.5,4.7-6.8,7.1c-0.9,1-1.4,2.3-0.1,3.1c0.7,0.4,2.3,0.3,3.1-0.3c1.5-1,2.7-2.5,3.9-3.8c1.3-1.4,2.5-1.3,3.8,0.1 		c1.3,1.4,2.6,2.8,4.1,4c0.6,0.5,1.6,0.5,2.4,0.4C73.1,38.7,73.5,37.9,73.9,37.3z"/> 	<path d="M46.2,55.5c7.8,0,15.7-0.1,23.5,0c3.2,0,3.7,1.2,2.6,4.1c-2.9,8.2-8.3,14-16.7,16.6c-14.2,4.3-30.5-0.6-35.9-16.9 		c-0.8-2.5-0.2-3.7,2.5-3.8C30.2,55.5,38.2,55.5,46.2,55.5C46.2,55.5,46.2,55.5,46.2,55.5z M67,60.1c-14.2,0-28.1,0-42,0 		c0.5,5.1,8.9,12.8,19.6,13.2C55.6,73.8,64,68.1,67,60.1z"/> 	<path d="M28,27c0.7,0.4,1.3,0.7,1.7,1.1c2.5,2.5,5,4.9,7.3,7.6c0.5,0.6,0.1,1.9,0.1,2.9c-1,0-2.3,0.3-3-0.2c-1.6-1.1-3-2.6-4.3-4.1 		c-1.3-1.4-2.4-1.2-3.6,0.1c-1.2,1.4-2.4,2.8-3.9,3.8c-0.8,0.5-2.3,0.6-3.1,0.2c-1.3-0.8-0.8-2.1,0.2-3c2.3-2.4,4.6-4.8,7-7.2 		C26.7,27.7,27.4,27.4,28,27z"/> 	<path d="M73.9,37.3c-0.5,0.5-0.9,1.4-1.4,1.5c-0.8,0.2-1.8,0.1-2.4-0.4c-1.5-1.2-2.8-2.6-4.1-4c-1.3-1.4-2.5-1.5-3.8-0.1 		c-1.3,1.3-2.5,2.8-3.9,3.8c-0.8,0.5-2.3,0.7-3.1,0.3c-1.3-0.8-0.8-2.1,0.1-3.1c2.3-2.4,4.5-4.7,6.8-7.1c1.2-1.2,2.5-1.6,3.7-0.3 		c2.4,2.4,4.8,4.9,7.1,7.4C73.3,35.9,73.5,36.6,73.9,37.3z"/> 	<path class="st0" d="M67,60.1c-3,8-11.4,13.7-22.4,13.2C33.9,72.9,25.5,65.2,25,60.1C39,60.1,52.9,60.1,67,60.1z"/> </g> </svg>
