<?xml version="1.0" encoding="utf-8"?> <!-- Generator: Adobe Illustrator 19.0.0, SVG Export Plug-In . SVG Version: 6.00 Build 0)  --> <svg version="1.1" id="Layer_1" xmlns="http://www.w3.org/2000/svg" xmlns:xlink="http://www.w3.org/1999/xlink" x="0px" y="0px" viewBox="0 0 86.9 83" style="enable-background:new 0 0 86.9 83;" xml:space="preserve"> <style type="text/css"> .st0{fill:#FFFFFF;} </style> <g> <path class="st0" d="M3.1,33.1c0-10.7,0-21.4,0-32.2c27.4,0,54.7,0,82.1,0c0,27.5,0,55,0,82.6c-27.4,0-54.7,0-82.1,0 c0-10.9,0-21.8,0-32.6c0.3,0.5,0.7,1.1,0.9,1.6c2.7,10.6,9,18.8,18.1,24.6c6.6,4.2,14.1,6,21.9,5.7c3.3-0.1,6.6-0.2,9.7-0.9 c6.5-1.4,12.3-4.5,17.2-9c6.2-5.5,10.8-12.2,12.6-20.2c2.9-13,1.3-25.4-7.4-36.2c-3.5-4.4-7.7-8-12.6-10.8 c-6.5-3.7-13.4-4.5-20.8-4.5c-8.8,0-16.4,2.5-23.4,7.6c-7,5-11.7,11.6-14.6,19.7C4.3,30.1,3.7,31.6,3.1,33.1z"/> <path d="M3.1,33.1c0.6-1.5,1.2-3.1,1.7-4.6c2.8-8,7.6-14.6,14.6-19.7c7-5.1,14.6-7.7,23.4-7.6c7.4,0,14.3,0.9,20.8,4.5 c4.9,2.8,9.1,6.4,12.6,10.8c8.7,10.9,10.2,23.2,7.4,36.2c-1.8,8-6.4,14.7-12.6,20.2c-5,4.5-10.7,7.5-17.2,9 c-3.2,0.7-6.5,0.8-9.7,0.9c-7.9,0.3-15.3-1.5-21.9-5.7C13,71.3,6.7,63.2,4,52.5c-0.1-0.6-0.6-1.1-0.9-1.6C3.1,45,3.1,39,3.1,33.1z M80.4,42.1C79.8,20.2,63.5,5.6,44.1,5.5C22.7,5.4,7.3,21.6,7.2,41.8C7.1,62.6,22.8,78.4,43.5,78.5C63.8,78.7,79.8,63.4,80.4,42.1z "/> <path class="st0" d="M80.4,42.1c-0.6,21.3-16.6,36.6-36.9,36.5C22.8,78.4,7.1,62.6,7.2,41.8C7.3,21.6,22.7,5.4,44.1,5.5 C63.5,5.6,79.8,20.2,80.4,42.1z M43.9,49c-6.7,0-13.4,0-20.1,0c-3.4,0-5,1.6-4.2,4.2c1.8,5.5,4.8,10,9.8,13.1 c6.8,4.3,14.2,4.7,21.8,2.9c8.2-1.9,13.3-7.2,16.3-14.8c1.6-4,0.4-5.5-3.9-5.5C57,48.9,50.5,49,43.9,49z M58.2,34.1 c2.9,0,3.9-1,3.9-3.5c0-2.3-1.5-3.8-3.9-3.7c-2.5,0-3.8,1.4-3.8,3.9C54.5,33.3,55.4,34.1,58.2,34.1z M29.3,34.1c2.5,0,4-1.3,4-3.4 c0-2.1-1.9-3.8-4.1-3.8c-2.3,0-3.6,1.4-3.6,3.8C25.6,33.3,26.6,34.2,29.3,34.1z"/> <path d="M43.9,49c6.6,0,13.1,0,19.7,0c4.3,0,5.5,1.5,3.9,5.5c-3,7.6-8.1,12.9-16.3,14.8c-7.7,1.8-15,1.4-21.8-2.9 c-5-3.1-8-7.7-9.8-13.1c-0.8-2.6,0.8-4.2,4.2-4.2C30.5,48.9,37.2,49,43.9,49z M62.4,54c-1.1-0.1-1.9-0.2-2.8-0.2 c-10.4,0-20.8,0-31.2,0c-1,0-1.9,0.4-2.9,0.6c0.4,1,0.7,2.1,1.3,2.9c5.8,8.7,18.8,9.8,26.8,6C57.5,61.5,60.5,58.5,62.4,54z"/> <path d="M58.2,34.1c-2.8,0-3.8-0.9-3.8-3.4c0-2.5,1.3-3.9,3.8-3.9c2.4,0,3.9,1.4,3.9,3.7C62.2,33.2,61.1,34.1,58.2,34.1z"/> <path d="M29.3,34.1c-2.8,0-3.7-0.9-3.7-3.4c0-2.4,1.3-3.8,3.6-3.8c2.2,0,4.1,1.7,4.1,3.8C33.3,32.8,31.8,34.1,29.3,34.1z"/> <path class="st0" d="M62.4,54c-1.9,4.5-4.8,7.5-8.8,9.4c-8,3.8-21,2.7-26.8-6c-0.6-0.9-0.9-2-1.3-2.9c1-0.2,1.9-0.6,2.9-0.6 c10.4,0,20.8,0,31.2,0C60.4,53.8,61.3,53.9,62.4,54z"/> </g> </svg>
