<?xml version="1.0" encoding="utf-8"?> <!-- Generator: Adobe Illustrator 19.0.0, SVG Export Plug-In . SVG Version: 6.00 Build 0)  --> <svg version="1.1" id="Layer_1" xmlns="http://www.w3.org/2000/svg" xmlns:xlink="http://www.w3.org/1999/xlink" x="0px" y="0px" viewBox="0 0 86.9 83" style="enable-background:new 0 0 86.9 83;" xml:space="preserve"> <style type="text/css"> .st0{fill:#FFFFFF;} </style> <g> <path class="st0" d="M49.9-0.5c12.3,0,24.6,0,37,0c0,27.4,0,54.7,0,82.1c-28.5,0-57,0-85.4,0c0-27.4,0-54.7,0-82.1 c12.3,0,24.6,0,37,0c-1.3,0.4-2.6,0.8-4,1.2c-7.2,2.2-13.7,5.6-19,11.1C6.7,21,2.8,32.1,4.2,44.6C5.3,55,10.1,63.9,18.1,70.8 c6.5,5.7,14.2,8.8,22.7,9.6c7.1,0.7,13.9-0.5,20.5-3.6c13.8-6.5,21.6-17.4,23.4-32.3c1.2-10-1.1-19.5-7.2-27.8 C72.1,9.1,65.1,3.8,56,1.3C54,0.7,52,0.1,49.9-0.5z"/> <path d="M49.9-0.5C52,0.1,54,0.7,56,1.3c9,2.5,16.1,7.8,21.5,15.3c6,8.3,8.4,17.8,7.2,27.8c-1.9,14.9-9.6,25.9-23.4,32.3 c-6.5,3.1-13.4,4.3-20.5,3.6c-8.5-0.8-16.2-4-22.7-9.6C10.1,63.9,5.3,55,4.2,44.6C2.8,32.1,6.7,21,15.5,11.8 c5.3-5.5,11.7-8.9,19-11.1c1.3-0.4,2.6-0.8,4-1.2C42.2-0.5,46.1-0.5,49.9-0.5z M81.7,40.2C82.3,20.6,65.7,2.8,44.4,2.8 C24,2.9,7.5,19.8,7.3,39.7C7.2,60.2,24.1,77.2,44.4,77.3C65.7,77.3,82.2,59.5,81.7,40.2z"/> <path class="st0" d="M81.7,40.2c0.4,19.3-16,37.1-37.3,37.1c-20.3,0-37.3-17-37.1-37.6C7.5,19.8,24,2.9,44.4,2.8 C65.7,2.8,82.3,20.6,81.7,40.2z M44.4,64.2c4.5,0,9,0,13.4,0c4.2,0,7.4-3.1,7.6-7.3c0.2-4.9-2.7-8.7-7.1-8.8 C49.1,48,40,48,30.9,48.1c-4.4,0.1-7.3,3.7-7.2,8.2c0.1,4.9,3,7.8,7.8,7.9C35.8,64.2,40.1,64.2,44.4,64.2z M32.1,21.6 c0.1-1.8-1.1-2.5-2.3-1.8c-2.7,1.7-5.3,3.5-7.8,5.4c-0.4,0.3-0.3,1.5-0.4,2.2c0.8,0.1,1.7,0.5,2.3,0.2c2.5-1.4,4.8-3.1,7.1-4.7 C31.5,22.6,31.8,21.9,32.1,21.6z M58.5,19c-0.7,0.7-1.3,1.1-1.3,1.5c-0.1,0.7,0,1.8,0.4,2.2c2.6,1.9,5.2,3.6,7.9,5.3 c0.4,0.2,1.2,0.2,1.5-0.1c0.4-0.4,0.7-1.5,0.6-1.6C64.7,23.8,61.7,21.4,58.5,19z M32.9,31.9c0-1.9-1-3-2.8-3.3 c-1.6-0.3-3.6,1.8-3.5,3.5c0.1,1.5,1.9,3.2,3.3,3.2C31.5,35.3,32.9,33.7,32.9,31.9z M56.1,31.9c0,1.8,1.3,3.3,3,3.4 c1.4,0,3.2-1.7,3.3-3.2c0-1.5-1.6-3.3-3.1-3.4C57.5,28.6,56.1,30.1,56.1,31.9z"/> <path d="M44.4,64.2c-4.3,0-8.6,0-12.9,0c-4.7,0-7.6-3-7.8-7.9c-0.1-4.6,2.8-8.1,7.2-8.2c9.1-0.2,18.2-0.2,27.3,0 c4.4,0.1,7.3,3.8,7.1,8.8c-0.2,4.2-3.3,7.3-7.6,7.3C53.3,64.2,48.9,64.2,44.4,64.2z M49.5,58C49.5,58,49.5,58,49.5,58 c-0.6,0-1.2-0.2-1.6,0c-0.6,0.3-1.1,0.9-1.7,1.4c0.5,0.5,1,1.4,1.6,1.5c1,0.2,2.2,0.2,3.3,0c0.6-0.2,1.1-1,1.6-1.5 c-0.5-0.5-0.9-1.1-1.5-1.4C50.7,57.8,50.1,58,49.5,58z M49.3,54.5C49.3,54.5,49.3,54.5,49.3,54.5c0.6,0,1.2,0.2,1.6,0 c0.7-0.3,1.2-0.9,1.7-1.4c-0.6-0.5-1.1-1.3-1.7-1.4c-1.1-0.2-2.4-0.2-3.5,0c-0.5,0.1-1.1,0.9-1.1,1.4c0,0.5,0.6,1.2,1.1,1.4 C47.9,54.7,48.7,54.5,49.3,54.5z M39.7,61C39.7,61,39.7,61,39.7,61c0.4,0,0.9,0.2,1.2,0c0.7-0.4,1.2-1,1.8-1.5 c-0.6-0.5-1.2-1.3-1.9-1.4c-1-0.2-2.1-0.2-3.1,0c-0.5,0.1-1.3,0.9-1.2,1.3c0.1,0.6,0.7,1.3,1.3,1.6C38.4,61.2,39.1,61,39.7,61z M39.1,54.6c1,0,1.5,0.1,1.8,0c0.7-0.4,1.3-0.9,2-1.4c-0.6-0.5-1.2-1.3-1.9-1.5c-1.1-0.2-2.2-0.1-3.3,0.1c-0.4,0.1-1,0.8-1,1.3 c0,0.5,0.5,1.2,0.9,1.4C38.1,54.7,38.9,54.6,39.1,54.6z M27.3,53.5c0.1,0.4,0.2,0.7,0.3,1.1c1.3,0,2.7,0.2,3.9-0.1 c0.6-0.1,1-1.1,1.5-1.6c-0.6-0.4-1.2-1.2-1.7-1.1C29.9,52.1,28.6,52.9,27.3,53.5z M61.5,54.5c-0.8-2.7-2.4-3.1-4.4-2.8 c-0.4,0.1-1,0.8-1,1.2c0,0.5,0.6,1.4,1,1.5C58.5,54.6,59.9,54.5,61.5,54.5z M27.3,58c1,2.3,2.4,3.2,4.3,2.9 c0.5-0.1,1.2-0.9,1.3-1.5c0.1-0.4-0.7-1.3-1.1-1.4C30.4,57.9,29,58,27.3,58z M61.6,58c-1.7,0-3-0.1-4.3,0.1c-0.5,0.1-1.1,1-1.2,1.5 c0,0.4,0.7,1.3,1.2,1.3C59.2,61.2,60.7,60.5,61.6,58z"/> <path d="M32.1,21.6c-0.2,0.3-0.6,1-1.1,1.3c-2.3,1.6-4.7,3.3-7.1,4.7c-0.5,0.3-1.5-0.1-2.3-0.2c0.1-0.8,0-1.9,0.4-2.2 c2.5-1.9,5.2-3.7,7.8-5.4C31,19.1,32.2,19.8,32.1,21.6z"/> <path d="M58.5,19c3.1,2.5,6.2,4.8,9.1,7.3c0.2,0.1-0.2,1.2-0.6,1.6c-0.3,0.3-1.1,0.3-1.5,0.1c-2.7-1.7-5.4-3.4-7.9-5.3 c-0.5-0.3-0.5-1.4-0.4-2.2C57.2,20,57.9,19.7,58.5,19z"/> <path d="M32.9,31.9c0,1.8-1.4,3.4-3,3.4c-1.4,0-3.2-1.7-3.3-3.2c-0.1-1.6,1.9-3.7,3.5-3.5C31.9,28.9,32.9,30,32.9,31.9z"/> <path d="M56.1,31.9c0-1.8,1.5-3.3,3.1-3.2c1.5,0,3.2,1.8,3.1,3.4c0,1.5-1.8,3.3-3.3,3.2C57.4,35.2,56,33.7,56.1,31.9z"/> <path class="st0" d="M49.5,58c0.6,0,1.2-0.2,1.6,0c0.6,0.3,1,0.9,1.5,1.4c-0.5,0.5-1,1.4-1.6,1.5c-1,0.3-2.2,0.3-3.3,0 c-0.6-0.1-1.1-1-1.6-1.5c0.5-0.5,1-1.1,1.7-1.4C48.3,57.8,49,58,49.5,58C49.5,58,49.5,58,49.5,58z"/> <path class="st0" d="M49.3,54.5c-0.6,0-1.4,0.2-1.9-0.1c-0.5-0.2-1.1-0.9-1.1-1.4c0-0.5,0.6-1.3,1.1-1.4c1.1-0.2,2.4-0.2,3.5,0 c0.6,0.1,1.2,0.9,1.7,1.4c-0.6,0.5-1.1,1.1-1.7,1.4C50.5,54.7,49.8,54.6,49.3,54.5C49.3,54.5,49.3,54.5,49.3,54.5z"/> <path class="st0" d="M39.7,61c-0.6,0-1.4,0.2-1.9-0.1c-0.6-0.3-1.2-1-1.3-1.6c-0.1-0.4,0.7-1.2,1.2-1.3c1-0.2,2.1-0.3,3.1,0 c0.7,0.2,1.3,0.9,1.9,1.4c-0.6,0.5-1.2,1.1-1.8,1.5C40.6,61.2,40.1,61,39.7,61C39.7,61,39.7,61,39.7,61z"/> <path class="st0" d="M39.1,54.6c-0.1,0-0.9,0.1-1.5-0.2c-0.4-0.2-0.9-0.9-0.9-1.4c0-0.5,0.6-1.2,1-1.3c1.1-0.2,2.3-0.3,3.3-0.1 c0.7,0.2,1.3,0.9,1.9,1.5c-0.6,0.5-1.3,1-2,1.4C40.5,54.7,40,54.6,39.1,54.6z"/> <path class="st0" d="M27.3,53.5c1.3-0.6,2.6-1.3,4-1.7c0.4-0.1,1.1,0.7,1.7,1.1c-0.5,0.6-0.9,1.5-1.5,1.6c-1.3,0.2-2.6,0.1-3.9,0.1 C27.5,54.2,27.4,53.8,27.3,53.5z"/> <path class="st0" d="M61.5,54.5c-1.6,0-3,0.1-4.4-0.1c-0.4-0.1-1-0.9-1-1.5c0-0.4,0.6-1.2,1-1.2C59.1,51.4,60.7,51.9,61.5,54.5z"/> <path class="st0" d="M27.3,58c1.7,0,3.1-0.1,4.5,0.1c0.5,0.1,1.2,1,1.1,1.4c-0.1,0.6-0.8,1.4-1.3,1.5C29.7,61.2,28.3,60.3,27.3,58z "/> <path class="st0" d="M61.6,58c-0.9,2.5-2.4,3.2-4.3,2.9c-0.5-0.1-1.2-0.9-1.2-1.3c0.1-0.6,0.7-1.5,1.2-1.5 C58.6,57.8,59.9,58,61.6,58z"/> </g> </svg>
